<svg width="119" height="90" viewBox="0 0 119 90" fill="none" xmlns="http://www.w3.org/2000/svg">
<g filter="url(#filter0_bi_6001_11902)">
<path fill-rule="evenodd" clip-rule="evenodd" d="M101.017 17.4025C101.017 17.8598 101 18.313 100.965 18.7614C102.871 17.1878 105.314 16.2424 107.979 16.2424C114.066 16.2424 119 21.1769 119 27.264C119 33.1565 114.376 37.969 108.558 38.2706V38.2856H66.2123V38.2252C60.6709 37.6451 56.3516 32.959 56.3516 27.264C56.3516 21.5572 60.6888 16.8634 66.2468 16.2992C66.8159 7.20212 74.3743 0 83.6149 0C93.226 0 101.017 7.79137 101.017 17.4025Z" fill="url(#paint0_linear_6001_11902)"/>
</g>
<g filter="url(#filter1_f_6001_11902)">
<ellipse cx="49.9134" cy="62.2198" rx="27.0335" ry="8.15295" fill="#4DB4FF"/>
</g>
<g filter="url(#filter2_bi_6001_11902)">
<path fill-rule="evenodd" clip-rule="evenodd" d="M70.0826 30.037C70.0826 30.7135 70.0565 31.3839 70.0052 32.0473C72.8244 29.7194 76.4393 28.3208 80.3809 28.3208C89.3864 28.3208 96.6869 35.6212 96.6869 44.6267C96.6869 53.3443 89.8458 60.4641 81.2392 60.9104V60.9323H80.4896C80.4534 60.9325 80.4172 60.9326 80.3809 60.9326C80.3447 60.9326 80.3084 60.9325 80.2722 60.9323H20.4146C20.3784 60.9325 20.3422 60.9326 20.3059 60.9326C20.2697 60.9326 20.2334 60.9325 20.1972 60.9323H18.5902V60.8435C10.3911 59.9861 4 53.0528 4 44.6267C4 36.1833 10.4176 29.2387 18.6411 28.4048C19.483 14.946 30.6654 4.29077 44.3364 4.29077C58.5556 4.29077 70.0826 15.8177 70.0826 30.037Z" fill="url(#paint1_linear_6001_11902)"/>
</g>
<defs>
<filter id="filter0_bi_6001_11902" x="49.3516" y="-7" width="76.6484" height="52.2856" filterUnits="userSpaceOnUse" color-interpolation-filters="sRGB">
<feFlood flood-opacity="0" result="BackgroundImageFix"/>
<feGaussianBlur in="BackgroundImageFix" stdDeviation="3.5"/>
<feComposite in2="SourceAlpha" operator="in" result="effect1_backgroundBlur_6001_11902"/>
<feBlend mode="normal" in="SourceGraphic" in2="effect1_backgroundBlur_6001_11902" result="shape"/>
<feColorMatrix in="SourceAlpha" type="matrix" values="0 0 0 0 0 0 0 0 0 0 0 0 0 0 0 0 0 0 127 0" result="hardAlpha"/>
<feOffset dy="2"/>
<feGaussianBlur stdDeviation="4"/>
<feComposite in2="hardAlpha" operator="arithmetic" k2="-1" k3="1"/>
<feColorMatrix type="matrix" values="0 0 0 0 0 0 0 0 0 0.82 0 0 0 0 1 0 0 0 0.25 0"/>
<feBlend mode="normal" in2="shape" result="effect2_innerShadow_6001_11902"/>
</filter>
<filter id="filter1_f_6001_11902" x="0.879883" y="32.0669" width="98.0674" height="60.3059" filterUnits="userSpaceOnUse" color-interpolation-filters="sRGB">
<feFlood flood-opacity="0" result="BackgroundImageFix"/>
<feBlend mode="normal" in="SourceGraphic" in2="BackgroundImageFix" result="shape"/>
<feGaussianBlur stdDeviation="11" result="effect1_foregroundBlur_6001_11902"/>
</filter>
<filter id="filter2_bi_6001_11902" x="-3" y="-2.70923" width="106.687" height="70.6418" filterUnits="userSpaceOnUse" color-interpolation-filters="sRGB">
<feFlood flood-opacity="0" result="BackgroundImageFix"/>
<feGaussianBlur in="BackgroundImageFix" stdDeviation="3.5"/>
<feComposite in2="SourceAlpha" operator="in" result="effect1_backgroundBlur_6001_11902"/>
<feBlend mode="normal" in="SourceGraphic" in2="effect1_backgroundBlur_6001_11902" result="shape"/>
<feColorMatrix in="SourceAlpha" type="matrix" values="0 0 0 0 0 0 0 0 0 0 0 0 0 0 0 0 0 0 127 0" result="hardAlpha"/>
<feOffset dy="2"/>
<feGaussianBlur stdDeviation="4"/>
<feComposite in2="hardAlpha" operator="arithmetic" k2="-1" k3="1"/>
<feColorMatrix type="matrix" values="0 0 0 0 0 0 0 0 0 0.82 0 0 0 0 1 0 0 0 0.25 0"/>
<feBlend mode="normal" in2="shape" result="effect2_innerShadow_6001_11902"/>
</filter>
<linearGradient id="paint0_linear_6001_11902" x1="72.2282" y1="46.7723" x2="112.33" y2="0.000434516" gradientUnits="userSpaceOnUse">
<stop offset="0.170077" stop-color="#0082DF"/>
<stop offset="0.538523" stop-color="#48B2FF" stop-opacity="0.9"/>
<stop offset="1" stop-color="#3BADFF" stop-opacity="0"/>
</linearGradient>
<linearGradient id="paint1_linear_6001_11902" x1="52.0599" y1="81.1006" x2="86.8173" y2="4.29073" gradientUnits="userSpaceOnUse">
<stop stop-color="#0082DF"/>
<stop offset="0.299998" stop-color="#48B2FF" stop-opacity="0.75"/>
<stop offset="1" stop-color="#3BADFF" stop-opacity="0"/>
</linearGradient>
</defs>
</svg>
