<svg width="105" height="95" viewBox="0 0 105 95" fill="none" xmlns="http://www.w3.org/2000/svg">
<g filter="url(#filter0_f_6001_11919)">
<ellipse cx="52.5283" cy="63.7501" rx="29.75" ry="8.97222" fill="#4DB4FF"/>
</g>
<g filter="url(#filter1_bi_6001_11919)">
<path fill-rule="evenodd" clip-rule="evenodd" d="M74.7221 28.3333C74.7221 29.0778 74.6934 29.8155 74.637 30.5455C77.7395 27.9836 81.7177 26.4445 86.0555 26.4445C95.9659 26.4445 104 34.4785 104 44.3889C104 53.9826 96.4713 61.8178 86.9999 62.3089V62.3334H86.0722C86.0666 62.3334 86.061 62.3334 86.0555 62.3334C86.0499 62.3334 86.0443 62.3334 86.0387 62.3334H19.9612C19.9556 62.3334 19.95 62.3334 19.9444 62.3334C19.9389 62.3334 19.9333 62.3334 19.9277 62.3334H18.0554V62.2351C9.0329 61.2912 2 53.6614 2 44.3889C2 35.0973 9.06203 27.4551 18.1115 26.5369C19.0381 11.7258 31.3441 0 46.3888 0C62.0368 0 74.7221 12.6853 74.7221 28.3333Z" fill="url(#paint0_linear_6001_11919)"/>
</g>
<path fill-rule="evenodd" clip-rule="evenodd" d="M30.7085 85.6326C31.1243 85.9289 31.6125 86.0863 32.1115 86.0848C32.5632 86.0881 33.0079 85.9647 33.4016 85.7268C33.7953 85.4889 34.1245 85.1447 34.3564 84.7283L63.0487 34.6884C63.416 34.0474 63.5335 33.2769 63.376 32.5436C63.2184 31.8102 62.7984 31.173 62.2069 30.7696C61.5975 30.4012 60.8799 30.2974 60.2015 30.4796C59.523 30.6618 58.9353 31.1162 58.559 31.7493L29.8666 81.7139C29.6754 82.0283 29.5453 82.381 29.4841 82.7508C29.4229 83.1206 29.4319 83.4999 29.5105 83.8659C29.5891 84.2319 29.7358 84.577 29.9416 84.8806C30.1475 85.1842 30.4083 85.44 30.7085 85.6326ZM11.5562 86.0848C11.0572 86.0863 10.569 85.9289 10.1532 85.6326C9.85299 85.44 9.59215 85.1842 9.38629 84.8806C9.18042 84.577 9.03378 84.2319 8.95516 83.8659C8.87653 83.4999 8.86754 83.1206 8.92874 82.7508C8.98994 82.381 9.12008 82.0283 9.31131 81.7139L29.866 46.4448C30.0453 46.1223 30.2834 45.8421 30.566 45.621C30.8486 45.3998 31.1699 45.2423 31.5106 45.1579C31.8513 45.0734 32.2044 45.0638 32.5486 45.1295C32.8929 45.1952 33.2212 45.335 33.5139 45.5405C34.1054 45.9438 34.5254 46.581 34.6829 47.3144C34.8405 48.0477 34.7229 48.8183 34.3557 49.4592L13.801 84.7283C13.5691 85.1447 13.24 85.4889 12.8463 85.7268C12.4526 85.9647 12.0079 86.0881 11.5562 86.0848ZM54.1389 86.0848C53.6399 86.0863 53.1517 85.9289 52.7359 85.6326C52.4357 85.44 52.1749 85.1842 51.969 84.8806C51.7632 84.577 51.6165 84.2319 51.5379 83.8659C51.4593 83.4999 51.4503 83.1206 51.5115 82.7508C51.5727 82.381 51.7029 82.0283 51.8941 81.7138L66.4156 56.6939C66.791 56.0584 67.3843 55.6073 68.067 55.4381C68.7496 55.2688 69.4669 55.3951 70.0635 55.7896C70.6551 56.1929 71.0751 56.8301 71.2326 57.5635C71.3901 58.2969 71.2726 59.0674 70.9054 59.7084L56.3838 84.7283C56.1468 85.1397 55.8166 85.4799 55.424 85.7171C55.0315 85.9543 54.5893 86.0808 54.1389 86.0848Z" fill="url(#paint1_linear_6001_11919)"/>
<path fill-rule="evenodd" clip-rule="evenodd" d="M26.853 62.3334H20.6064L29.8663 46.4448C30.0456 46.1223 30.2837 45.8421 30.5663 45.621C30.8489 45.3998 31.1702 45.2423 31.5109 45.1579C31.8516 45.0734 32.2047 45.0638 32.5489 45.1295C32.8932 45.1952 33.2215 45.335 33.5142 45.5405C34.1058 45.9438 34.5257 46.581 34.6832 47.3144C34.8408 48.0477 34.7233 48.8183 34.3561 49.4592L26.853 62.3334ZM47.1977 62.3334H40.9963L58.5593 31.7493C58.9356 31.1162 59.5233 30.6618 60.2018 30.4796C60.8802 30.2974 61.5978 30.4012 62.2072 30.7696C62.7988 31.173 63.2187 31.8102 63.3763 32.5436C63.5338 33.2769 63.4163 34.0474 63.0491 34.6884L47.1977 62.3334ZM69.3821 62.3334H63.1427L66.4159 56.6939C66.7914 56.0584 67.3846 55.6073 68.0673 55.4381C68.7499 55.2688 69.4672 55.3951 70.0639 55.7896C70.6554 56.1929 71.0754 56.8301 71.2329 57.5635C71.3904 58.2969 71.2729 59.0674 70.9057 59.7084L69.3821 62.3334Z" fill="#E0F3FE"/>
<defs>
<filter id="filter0_f_6001_11919" x="0.77832" y="32.7778" width="103.5" height="61.9443" filterUnits="userSpaceOnUse" color-interpolation-filters="sRGB">
<feFlood flood-opacity="0" result="BackgroundImageFix"/>
<feBlend mode="normal" in="SourceGraphic" in2="BackgroundImageFix" result="shape"/>
<feGaussianBlur stdDeviation="11" result="effect1_foregroundBlur_6001_11919"/>
</filter>
<filter id="filter1_bi_6001_11919" x="-5" y="-7" width="116" height="76.3333" filterUnits="userSpaceOnUse" color-interpolation-filters="sRGB">
<feFlood flood-opacity="0" result="BackgroundImageFix"/>
<feGaussianBlur in="BackgroundImageFix" stdDeviation="3.5"/>
<feComposite in2="SourceAlpha" operator="in" result="effect1_backgroundBlur_6001_11919"/>
<feBlend mode="normal" in="SourceGraphic" in2="effect1_backgroundBlur_6001_11919" result="shape"/>
<feColorMatrix in="SourceAlpha" type="matrix" values="0 0 0 0 0 0 0 0 0 0 0 0 0 0 0 0 0 0 127 0" result="hardAlpha"/>
<feOffset dy="2"/>
<feGaussianBlur stdDeviation="4"/>
<feComposite in2="hardAlpha" operator="arithmetic" k2="-1" k3="1"/>
<feColorMatrix type="matrix" values="0 0 0 0 0 0 0 0 0 0.82 0 0 0 0 1 0 0 0 0.25 0"/>
<feBlend mode="normal" in2="shape" result="effect2_innerShadow_6001_11919"/>
</filter>
<linearGradient id="paint0_linear_6001_11919" x1="54.8889" y1="84.5278" x2="93.1389" y2="1.35708e-06" gradientUnits="userSpaceOnUse">
<stop stop-color="#0082DF"/>
<stop offset="0.299998" stop-color="#48B2FF" stop-opacity="0.75"/>
<stop offset="1" stop-color="#3BADFF" stop-opacity="0"/>
</linearGradient>
<linearGradient id="paint1_linear_6001_11919" x1="40.0948" y1="30.3918" x2="40.0948" y2="86.0849" gradientUnits="userSpaceOnUse">
<stop stop-color="#D7F0FF"/>
<stop offset="1" stop-color="#0072DC"/>
</linearGradient>
</defs>
</svg>
