<svg width="95" height="84" viewBox="0 0 95 84" fill="none" xmlns="http://www.w3.org/2000/svg">
<g filter="url(#filter0_f_6001_11943)">
<ellipse cx="47.602" cy="53.7501" rx="25.0834" ry="7.56483" fill="#4DB4FF"/>
</g>
<path fill-rule="evenodd" clip-rule="evenodd" d="M66.9221 54.421C66.9221 53.0839 65.8382 52 64.5011 52C63.164 52 62.0801 53.0839 62.0801 54.421V58.6654L59.079 55.6643C58.1335 54.7188 56.6006 54.7188 55.6552 55.6643C54.7097 56.6098 54.7097 58.1427 55.6552 59.0881L58.6561 62.0891H54.4122C53.0751 62.0891 51.9912 63.173 51.9912 64.5101C51.9912 65.8471 53.0751 66.9311 54.4122 66.9311L58.6564 66.9311L55.6552 69.9322C54.7097 70.8777 54.7097 72.4106 55.6552 73.3561C56.6007 74.3015 58.1336 74.3015 59.079 73.3561L62.0801 70.355V74.5989C62.0801 75.936 63.164 77.0199 64.5011 77.0199C65.8382 77.0199 66.9221 75.936 66.9221 74.5989V70.3551L69.9231 73.3561C70.8686 74.3015 72.4015 74.3015 73.3469 73.3561C74.2924 72.4106 74.2924 70.8777 73.3469 69.9322L70.3458 66.9311L74.5901 66.9311C75.9272 66.9311 77.0111 65.8472 77.0111 64.5101C77.0111 63.173 75.9272 62.0891 74.5901 62.0891H70.346L73.3469 59.0881C74.2924 58.1427 74.2924 56.6098 73.3469 55.6643C72.4015 54.7188 70.8686 54.7188 69.9231 55.6643L66.9221 58.6653V54.421Z" fill="url(#paint0_linear_6001_11943)"/>
<g filter="url(#filter1_bi_6001_11943)">
<path fill-rule="evenodd" clip-rule="evenodd" d="M66.3151 23.889C66.3151 24.5165 66.2909 25.1385 66.2433 25.7539C68.8591 23.594 72.2132 22.2963 75.8704 22.2963C84.2263 22.2963 91.0001 29.0701 91.0001 37.426C91.0001 45.5147 84.6526 52.1209 76.6669 52.5351V52.5557H18.5372V52.4729C10.9298 51.6771 5 45.244 5 37.426C5 29.5918 10.9544 23.1483 18.5844 22.3743C19.3657 9.88649 29.7414 0 42.4261 0C55.6196 0 66.3151 10.6954 66.3151 23.889Z" fill="url(#paint1_linear_6001_11943)"/>
</g>
<path d="M17.4391 70.6986C17.0186 70.7133 16.6033 70.5939 16.2456 70.3554C15.9879 70.2012 15.7617 69.9927 15.5808 69.7424C15.3998 69.4921 15.2677 69.2052 15.1924 68.8988C15.1171 68.5925 15.1002 68.2731 15.1427 67.9598C15.1851 67.6465 15.2861 67.3458 15.4395 67.0756L31.8927 36.7977C32.0358 36.5211 32.2296 36.2786 32.4623 36.0846C32.695 35.8906 32.9619 35.7491 33.247 35.6687C33.532 35.5884 33.8293 35.5707 34.1211 35.6168C34.4128 35.6629 34.6929 35.7719 34.9447 35.9371C35.4531 36.261 35.8227 36.7867 35.9736 37.4005C36.1244 38.0143 36.0444 38.6668 35.7507 39.2169L19.2975 69.4948C19.1123 69.852 18.8435 70.1509 18.5175 70.362C18.1916 70.5731 17.8199 70.6891 17.4391 70.6986Z" fill="url(#paint2_linear_6001_11943)"/>
<path d="M41.3401 69.0976C40.9196 69.1124 40.5043 68.993 40.1465 68.7545C39.8888 68.6002 39.6627 68.3917 39.4817 68.1414C39.3007 67.8911 39.1687 67.6042 39.0934 67.2979C39.0181 66.9916 39.0012 66.6722 39.0437 66.3589C39.0861 66.0456 39.1871 65.7448 39.3405 65.4747L50.9619 43.9971C51.2626 43.4514 51.7514 43.0552 52.3226 42.8942C52.8937 42.7331 53.5013 42.8201 54.0139 43.1365C54.5223 43.4604 54.8919 43.9861 55.0428 44.5999C55.1936 45.2136 55.1136 45.8662 54.8199 46.4163L43.1985 67.8938C43.0089 68.247 42.739 68.5426 42.414 68.7531C42.089 68.9636 41.7195 69.0821 41.3401 69.0976Z" fill="url(#paint3_linear_6001_11943)"/>
<path d="M24.9495 78.1279C24.529 78.1426 24.1136 78.0232 23.7559 77.7847C23.4982 77.6305 23.2721 77.422 23.0911 77.1717C22.9101 76.9214 22.7781 76.6345 22.7028 76.3282C22.6275 76.0219 22.6106 75.7025 22.653 75.3892C22.6955 75.0759 22.7965 74.7751 22.9499 74.505L34.5712 53.0274C34.872 52.4817 35.3608 52.0855 35.9319 51.9244C36.5031 51.7634 37.1107 51.8504 37.6232 52.1667C38.1317 52.4907 38.5013 53.0163 38.6522 53.6301C38.803 54.2439 38.7229 54.8964 38.4293 55.4465L26.8079 76.9241C26.6183 77.2772 26.3484 77.5728 26.0234 77.7834C25.6984 77.9939 25.3289 78.1124 24.9495 78.1279Z" fill="url(#paint4_linear_6001_11943)"/>
<path fill-rule="evenodd" clip-rule="evenodd" d="M28.5017 52.5556H23.3291L31.8921 36.7975C32.0353 36.5209 32.2291 36.2784 32.4618 36.0843C32.6945 35.8903 32.9614 35.7489 33.2464 35.6685C33.5315 35.5882 33.8288 35.5705 34.1205 35.6166C34.4123 35.6627 34.6924 35.7717 34.9441 35.9369C35.4526 36.2608 35.8222 36.7865 35.973 37.4003C36.1239 38.0141 36.0438 38.6666 35.7502 39.2167L28.5017 52.5556ZM38.0837 52.5556H34.9104C35.1899 52.2538 35.5414 52.0343 35.9313 51.9243C36.5025 51.7633 37.11 51.8503 37.6226 52.1667C37.7929 52.2751 37.9475 52.4062 38.0837 52.5556ZM51.4972 52.5556H46.3302L50.9612 43.9971C51.2619 43.4514 51.7507 43.0552 52.3219 42.8941C52.893 42.7331 53.5006 42.8201 54.0132 43.1364C54.5216 43.4603 54.8912 43.986 55.0421 44.5998C55.1929 45.2136 55.1129 45.8661 54.8192 46.4162L51.4972 52.5556Z" fill="#E0F3FE"/>
<defs>
<filter id="filter0_f_6001_11943" x="0.518555" y="24.1853" width="94.167" height="59.1296" filterUnits="userSpaceOnUse" color-interpolation-filters="sRGB">
<feFlood flood-opacity="0" result="BackgroundImageFix"/>
<feBlend mode="normal" in="SourceGraphic" in2="BackgroundImageFix" result="shape"/>
<feGaussianBlur stdDeviation="11" result="effect1_foregroundBlur_6001_11943"/>
</filter>
<filter id="filter1_bi_6001_11943" x="-2" y="-7" width="100" height="66.5557" filterUnits="userSpaceOnUse" color-interpolation-filters="sRGB">
<feFlood flood-opacity="0" result="BackgroundImageFix"/>
<feGaussianBlur in="BackgroundImageFix" stdDeviation="3.5"/>
<feComposite in2="SourceAlpha" operator="in" result="effect1_backgroundBlur_6001_11943"/>
<feBlend mode="normal" in="SourceGraphic" in2="effect1_backgroundBlur_6001_11943" result="shape"/>
<feColorMatrix in="SourceAlpha" type="matrix" values="0 0 0 0 0 0 0 0 0 0 0 0 0 0 0 0 0 0 127 0" result="hardAlpha"/>
<feOffset dy="2"/>
<feGaussianBlur stdDeviation="4"/>
<feComposite in2="hardAlpha" operator="arithmetic" k2="-1" k3="1"/>
<feColorMatrix type="matrix" values="0 0 0 0 0 0 0 0 0 0.82 0 0 0 0 1 0 0 0 0.25 0"/>
<feBlend mode="normal" in2="shape" result="effect2_innerShadow_6001_11943"/>
</filter>
<linearGradient id="paint0_linear_6001_11943" x1="55.5629" y1="71.9564" x2="79.3256" y2="51.8998" gradientUnits="userSpaceOnUse">
<stop stop-color="#0056D6"/>
<stop offset="1" stop-color="#ADD8FF"/>
</linearGradient>
<linearGradient id="paint1_linear_6001_11943" x1="49.5926" y1="71.2687" x2="81.8427" y2="6.77585e-05" gradientUnits="userSpaceOnUse">
<stop stop-color="#0082DF"/>
<stop offset="0.299998" stop-color="#48B2FF" stop-opacity="0.75"/>
<stop offset="1" stop-color="#3BADFF" stop-opacity="0"/>
</linearGradient>
<linearGradient id="paint2_linear_6001_11943" x1="31.9077" y1="23.9437" x2="6.24992" y2="60.7182" gradientUnits="userSpaceOnUse">
<stop stop-color="#D7F0FF"/>
<stop offset="1" stop-color="#0072DC"/>
</linearGradient>
<linearGradient id="paint3_linear_6001_11943" x1="51.9327" y1="34.0722" x2="32.8584" y2="62.0623" gradientUnits="userSpaceOnUse">
<stop stop-color="#D7F0FF"/>
<stop offset="1" stop-color="#0072DC"/>
</linearGradient>
<linearGradient id="paint4_linear_6001_11943" x1="35.542" y1="43.1025" x2="16.4677" y2="71.0926" gradientUnits="userSpaceOnUse">
<stop stop-color="#D7F0FF"/>
<stop offset="1" stop-color="#0072DC"/>
</linearGradient>
</defs>
</svg>
