<svg width="98" height="88" viewBox="0 0 98 88" fill="none" xmlns="http://www.w3.org/2000/svg">
<g filter="url(#filter0_f_6001_11868)">
<ellipse cx="49.0798" cy="56.875" rx="26.5417" ry="8.00463" fill="#4DB4FF"/>
</g>
<path fill-rule="evenodd" clip-rule="evenodd" d="M39.6779 47.0297C39.6779 45.4745 38.4172 44.2139 36.8621 44.2139C35.307 44.2139 34.0463 45.4745 34.0463 47.0297V48.8131L32.7855 47.5523C31.6859 46.4527 29.903 46.4527 28.8034 47.5523C27.7037 48.6519 27.7037 50.4348 28.8034 51.5344L30.0648 52.7958H28.2797C26.7245 52.7958 25.4639 54.0565 25.4639 55.6116C25.4639 57.1668 26.7245 58.4275 28.2797 58.4275H30.0651L28.8034 59.6891C27.7038 60.7888 27.7038 62.5717 28.8034 63.6713C29.9031 64.7709 31.6859 64.7709 32.7856 63.6713L34.0463 62.4106V64.1936C34.0463 65.7487 35.307 67.0094 36.8621 67.0094C38.4172 67.0094 39.6779 65.7487 39.6779 64.1936V62.409L40.9401 63.6712C42.0397 64.7708 43.8226 64.7708 44.9223 63.6712C46.0219 62.5715 46.0219 60.7887 44.9223 59.689L43.6607 58.4275H45.4436C46.9987 58.4275 48.2594 57.1668 48.2594 55.6116C48.2594 54.0565 46.9987 52.7958 45.4436 52.7958H43.661L44.9223 51.5346C46.022 50.4349 46.022 48.6521 44.9223 47.5524C43.8227 46.4528 42.0398 46.4528 40.9402 47.5524L39.6779 48.8147V47.0297Z" fill="url(#paint0_linear_6001_11868)"/>
<path fill-rule="evenodd" clip-rule="evenodd" d="M68.7675 42.3311C68.7675 40.5422 67.3173 39.092 65.5284 39.092C63.7395 39.092 62.2893 40.5422 62.2893 42.3311V44.4159L60.8164 42.943C59.5515 41.6781 57.5006 41.6781 56.2357 42.943C54.9708 44.2079 54.9708 46.2588 56.2357 47.5237L57.7126 49.0006H55.6199C53.831 49.0006 52.3809 50.4508 52.3809 52.2397C52.3809 54.0286 53.831 55.4788 55.6199 55.4788H57.7119L56.2344 56.9562C54.9695 58.2211 54.9695 60.272 56.2344 61.5369C57.4994 62.8019 59.5502 62.8019 60.8152 61.5369L62.2893 60.0627V62.1488C62.2893 63.9377 63.7395 65.3878 65.5284 65.3878C67.3173 65.3878 68.7675 63.9377 68.7675 62.1488V60.0555L70.2489 61.5369C71.5138 62.8019 73.5647 62.8019 74.8296 61.5369C76.0946 60.272 76.0946 58.2211 74.8296 56.9562L73.3522 55.4788H75.4376C77.2265 55.4788 78.6767 54.0286 78.6767 52.2397C78.6767 50.4508 77.2265 49.0006 75.4376 49.0006H73.3515L74.8284 47.5237C76.0933 46.2588 76.0933 44.2079 74.8284 42.943C73.5634 41.6781 71.5126 41.6781 70.2476 42.943L68.7675 44.4232V42.3311Z" fill="url(#paint1_linear_6001_11868)"/>
<path fill-rule="evenodd" clip-rule="evenodd" d="M57.7717 70.2507C57.7717 68.9389 56.7082 67.8755 55.3964 67.8755C54.0846 67.8755 53.0211 68.9389 53.0211 70.2507V71.7813L51.9392 70.6994C51.0116 69.7718 49.5077 69.7718 48.5801 70.6994C47.6525 71.627 47.6525 73.1309 48.5801 74.0585L49.6636 75.142H48.1311C46.8193 75.142 45.7559 76.2055 45.7559 77.5173C45.7559 78.8291 46.8193 79.8925 48.1311 79.8925H49.6632L48.5799 80.9758C47.6523 81.9034 47.6523 83.4073 48.5799 84.3349C49.5075 85.2625 51.0115 85.2625 51.939 84.3349L53.0211 83.2528V84.7834C53.0211 86.0952 54.0846 87.1586 55.3964 87.1586C56.7082 87.1586 57.7717 86.0952 57.7717 84.7834V83.2501L58.8562 84.3346C59.7838 85.2622 61.2877 85.2622 62.2153 84.3346C63.1429 83.407 63.1429 81.9031 62.2153 80.9755L61.1323 79.8925H62.6637C63.9755 79.8925 65.039 78.8291 65.039 77.5173C65.039 76.2055 63.9755 75.142 62.6637 75.142H61.1319L62.2152 74.0588C63.1427 73.1312 63.1427 71.6273 62.2152 70.6997C61.2876 69.7721 59.7836 69.7721 58.856 70.6997L57.7717 71.784V70.2507Z" fill="url(#paint2_linear_6001_11868)"/>
<g filter="url(#filter1_bi_6001_11868)">
<path fill-rule="evenodd" clip-rule="evenodd" d="M68.882 25.2778C68.882 25.9411 68.8565 26.5985 68.8063 27.249C71.5738 24.9647 75.1219 23.5925 78.9906 23.5925C87.8323 23.5925 94.9999 30.7601 94.9999 39.6018C94.9999 48.16 88.2845 55.1497 79.8357 55.5891V55.6112H18.3265V55.5237C10.2758 54.6827 4 47.8751 4 39.6018C4 31.3113 10.3018 24.4927 18.3765 23.6748C19.2034 10.4611 30.1822 0 43.6042 0C57.5648 0 68.882 11.3172 68.882 25.2778Z" fill="url(#paint3_linear_6001_11868)"/>
</g>
<path fill-rule="evenodd" clip-rule="evenodd" d="M48.2594 55.611H25.4639C25.4642 54.0562 26.7248 52.7958 28.2797 52.7958H30.0648L28.8034 51.5344C27.7037 50.4348 27.7037 48.6519 28.8034 47.5523C29.903 46.4527 31.6859 46.4527 32.7855 47.5523L34.0463 48.8131V47.0297C34.0463 45.4745 35.307 44.2139 36.8621 44.2139C38.4172 44.2139 39.6779 45.4745 39.6779 47.0297V48.8147L40.9402 47.5524C42.0398 46.4528 43.8227 46.4528 44.9223 47.5524C46.022 48.6521 46.022 50.4349 44.9223 51.5346L43.661 52.7958H45.4436C46.9985 52.7958 48.2591 54.0562 48.2594 55.611Z" fill="#E0F3FE"/>
<defs>
<filter id="filter0_f_6001_11868" x="0.538086" y="26.8704" width="97.083" height="60.0093" filterUnits="userSpaceOnUse" color-interpolation-filters="sRGB">
<feFlood flood-opacity="0" result="BackgroundImageFix"/>
<feBlend mode="normal" in="SourceGraphic" in2="BackgroundImageFix" result="shape"/>
<feGaussianBlur stdDeviation="11" result="effect1_foregroundBlur_6001_11868"/>
</filter>
<filter id="filter1_bi_6001_11868" x="-3" y="-7" width="105" height="69.6113" filterUnits="userSpaceOnUse" color-interpolation-filters="sRGB">
<feFlood flood-opacity="0" result="BackgroundImageFix"/>
<feGaussianBlur in="BackgroundImageFix" stdDeviation="3.5"/>
<feComposite in2="SourceAlpha" operator="in" result="effect1_backgroundBlur_6001_11868"/>
<feBlend mode="normal" in="SourceGraphic" in2="effect1_backgroundBlur_6001_11868" result="shape"/>
<feColorMatrix in="SourceAlpha" type="matrix" values="0 0 0 0 0 0 0 0 0 0 0 0 0 0 0 0 0 0 127 0" result="hardAlpha"/>
<feOffset dy="2"/>
<feGaussianBlur stdDeviation="4"/>
<feComposite in2="hardAlpha" operator="arithmetic" k2="-1" k3="1"/>
<feColorMatrix type="matrix" values="0 0 0 0 0 0 0 0 0 0.82 0 0 0 0 1 0 0 0 0.25 0"/>
<feBlend mode="normal" in2="shape" result="effect2_innerShadow_6001_11868"/>
</filter>
<linearGradient id="paint0_linear_6001_11868" x1="28.718" y1="62.396" x2="50.3681" y2="44.1225" gradientUnits="userSpaceOnUse">
<stop stop-color="#0056D6"/>
<stop offset="1" stop-color="#ADD8FF"/>
</linearGradient>
<linearGradient id="paint1_linear_6001_11868" x1="56.1347" y1="60.0661" x2="81.1091" y2="38.9867" gradientUnits="userSpaceOnUse">
<stop stop-color="#0056D6"/>
<stop offset="1" stop-color="#ADD8FF"/>
</linearGradient>
<linearGradient id="paint2_linear_6001_11868" x1="48.5086" y1="83.2561" x2="66.8227" y2="67.7982" gradientUnits="userSpaceOnUse">
<stop stop-color="#0056D6"/>
<stop offset="1" stop-color="#ADD8FF"/>
</linearGradient>
<linearGradient id="paint3_linear_6001_11868" x1="51.1851" y1="75.412" x2="85.3102" y2="2.88862e-05" gradientUnits="userSpaceOnUse">
<stop stop-color="#0082DF"/>
<stop offset="0.299998" stop-color="#48B2FF" stop-opacity="0.75"/>
<stop offset="1" stop-color="#3BADFF" stop-opacity="0"/>
</linearGradient>
</defs>
</svg>
